<svg width="20" height="20" viewBox="0 0 20 20" fill="none" xmlns="http://www.w3.org/2000/svg">
<path d="M8.3999 16.4C10.1749 16.3996 11.8987 15.8054 13.2969 14.712L17.6929 19.108L19.1069 17.694L14.7109 13.298C15.8049 11.8997 16.3995 10.1754 16.3999 8.39999C16.3999 3.98899 12.8109 0.399994 8.3999 0.399994C3.9889 0.399994 0.399902 3.98899 0.399902 8.39999C0.399902 12.811 3.9889 16.4 8.3999 16.4ZM8.3999 2.39999C11.7089 2.39999 14.3999 5.09099 14.3999 8.39999C14.3999 11.709 11.7089 14.4 8.3999 14.4C5.0909 14.4 2.3999 11.709 2.3999 8.39999C2.3999 5.09099 5.0909 2.39999 8.3999 2.39999Z" fill="#2B4676"/>
</svg>
